<svg id="Layer_1" data-name="Layer 1" xmlns="http://www.w3.org/2000/svg" viewBox="0 0 36 36"><title>Git-Icon</title><path d="M323.66,375.49l-15.72-15.72a2.32,2.32,0,0,0-3.28,0L301.4,363l4.14,4.14a2.75,2.75,0,0,1,3.49,3.51l4,4a2.73,2.73,0,1,1-1.68,1.56l-3.75-3.72v9.79a5.31,5.31,0,0,0,.76.52,2.75,2.75,0,1,1-3.9,0,9,9,0,0,0,.89-0.6v-9.88a9.06,9.06,0,0,0-.88-0.6,2.75,2.75,0,0,1-.58-3l-4.08-4.08L289,375.42a2.32,2.32,0,0,0,0,3.28l15.72,15.72a2.32,2.32,0,0,0,3.28,0l15.64-15.64A2.32,2.32,0,0,0,323.66,375.49Z" transform="translate(-288.34 -359.09)"/></svg>