<svg id="Layer_1" data-name="Layer 1" xmlns="http://www.w3.org/2000/svg" viewBox="0 0 48 48">
    <defs>
        <style>.cls-1{fill:#231f20;}</style>
    </defs>
    <title>Ticket-Icon</title>
    <path class="cls-1"
          d="M325.51,392.45l-2-12.42a4.17,4.17,0,0,0-3.46-3.46l-12.42-2a4.17,4.17,0,0,0-3.6,1.17L278.78,401a4.17,4.17,0,0,0,0,5.89l14.39,14.39a4.17,4.17,0,0,0,5.89,0l25.28-25.28A4.17,4.17,0,0,0,325.51,392.45ZM298,418.1a1.63,1.63,0,0,1-2.3,0L282,404.43a1.63,1.63,0,0,1,2.3-2.3L298,415.8A1.63,1.63,0,0,1,298,418.1Zm18.39-29.93a3.14,3.14,0,1,1,0-4.44A3.14,3.14,0,0,1,316.37,388.17Z"
          transform="translate(-277.56 -374.55)"/>
</svg>